<svg xmlns="http://www.w3.org/2000/svg" viewBox="0 0 800 500" width="800" height="500">
  <rect width="800" height="500" fill="#fafbfc"/>
  <!-- Top -->
  <rect x="0" y="0" width="800" height="48" fill="#ffffff"/>
  <circle cx="22" cy="24" r="6" fill="#10b981"/>
  <circle cx="42" cy="24" r="6" fill="#e6e8ec"/>
  <circle cx="62" cy="24" r="6" fill="#e6e8ec"/>
  <line x1="0" y1="48" x2="800" y2="48" stroke="#e6e8ec"/>

  <!-- Columns -->
  <g font-family="Inter" font-size="13" font-weight="600" fill="#5a6170">
    <text x="40" y="80">TODO</text>
    <text x="296" y="80">IN PROGRESS</text>
    <text x="552" y="80">DONE</text>
  </g>

  <!-- TODO column -->
  <rect x="24" y="96" width="232" height="80" rx="12" fill="#ffffff" stroke="#e6e8ec"/>
  <rect x="40" y="114" width="160" height="12" rx="6" fill="#0a0a0a"/>
  <rect x="40" y="136" width="120" height="10" rx="5" fill="#5a6170"/>
  <rect x="40" y="154" width="40" height="14" rx="7" fill="#10b981" opacity="0.18"/>

  <rect x="24" y="188" width="232" height="80" rx="12" fill="#ffffff" stroke="#e6e8ec"/>
  <rect x="40" y="206" width="180" height="12" rx="6" fill="#0a0a0a"/>
  <rect x="40" y="228" width="100" height="10" rx="5" fill="#5a6170"/>
  <rect x="40" y="246" width="50" height="14" rx="7" fill="#e6e8ec"/>

  <rect x="24" y="280" width="232" height="80" rx="12" fill="#ffffff" stroke="#e6e8ec"/>
  <rect x="40" y="298" width="140" height="12" rx="6" fill="#0a0a0a"/>
  <rect x="40" y="320" width="120" height="10" rx="5" fill="#5a6170"/>

  <!-- IN PROGRESS -->
  <rect x="280" y="96" width="232" height="112" rx="12" fill="#ecfdf5" stroke="#10b981" stroke-opacity="0.35"/>
  <rect x="296" y="114" width="180" height="12" rx="6" fill="#10b981"/>
  <rect x="296" y="136" width="140" height="10" rx="5" fill="#0a0a0a"/>
  <rect x="296" y="156" width="200" height="8" rx="4" fill="#e6e8ec"/>
  <rect x="296" y="156" width="140" height="8" rx="4" fill="#10b981"/>
  <rect x="296" y="176" width="60" height="14" rx="7" fill="#10b981" opacity="0.18"/>

  <rect x="280" y="220" width="232" height="80" rx="12" fill="#ffffff" stroke="#e6e8ec"/>
  <rect x="296" y="238" width="160" height="12" rx="6" fill="#0a0a0a"/>
  <rect x="296" y="260" width="120" height="10" rx="5" fill="#5a6170"/>

  <!-- DONE -->
  <rect x="536" y="96" width="232" height="80" rx="12" fill="#ffffff" stroke="#e6e8ec" opacity="0.85"/>
  <rect x="552" y="114" width="140" height="12" rx="6" fill="#5a6170"/>
  <rect x="552" y="136" width="100" height="10" rx="5" fill="#c0c6d0"/>
  <path d="M740 118 l-8 8 l-4 -4" stroke="#10b981" stroke-width="2.5" fill="none" stroke-linecap="round" stroke-linejoin="round"/>

  <rect x="536" y="188" width="232" height="80" rx="12" fill="#ffffff" stroke="#e6e8ec" opacity="0.85"/>
  <rect x="552" y="206" width="170" height="12" rx="6" fill="#5a6170"/>
  <rect x="552" y="228" width="110" height="10" rx="5" fill="#c0c6d0"/>
  <path d="M740 210 l-8 8 l-4 -4" stroke="#10b981" stroke-width="2.5" fill="none" stroke-linecap="round" stroke-linejoin="round"/>

  <rect x="536" y="280" width="232" height="80" rx="12" fill="#ffffff" stroke="#e6e8ec" opacity="0.85"/>
  <rect x="552" y="298" width="130" height="12" rx="6" fill="#5a6170"/>
  <rect x="552" y="320" width="90" height="10" rx="5" fill="#c0c6d0"/>
  <path d="M740 302 l-8 8 l-4 -4" stroke="#10b981" stroke-width="2.5" fill="none" stroke-linecap="round" stroke-linejoin="round"/>
</svg>
